<?xml version="1.0" encoding="UTF-8"?>
<svg id="_레이어_2" data-name="레이어 2" xmlns="http://www.w3.org/2000/svg" viewBox="0 0 427.89 166.86">
  <defs>
    <style>
      .cls-1 {
        fill: #fff;
      }
    </style>
  </defs>
  <g id="DESIGN">
    <g>
      <g>
        <g>
          <path class="cls-1" d="M62.83,164c-.2-.06-.39-.12-.59-.18-1.3-.36-2.26-1.16-2.8-2.38-.88-1.98-.85-3.97.12-5.91.93-1.85,2.99-2.69,4.91-2.37,1.9.32,3.31,1.71,3.75,3.88.26,1.26.19,2.53-.24,3.74-.61,1.73-1.78,2.84-3.65,3.12-.07.01-.14.07-.21.1h-1.29ZM60.81,158.25c-.02,1.38.22,2.31.71,3.04,1.03,1.52,3,1.58,4.08.11.23-.31.38-.68.52-1.04.32-.82.3-1.68.24-2.54-.06-.75-.28-1.45-.71-2.07-.81-1.14-2.11-1.46-3.28-.78-.55.33-.92.82-1.17,1.42-.28.68-.39,1.38-.39,1.85Z"/>
          <path class="cls-1" d="M19.64,164c-.2-.05-.41-.11-.61-.16-1.39-.38-2.13-1.36-2.43-2.71-.13-.57-.19-1.15-.2-1.73-.02-1.9,0-3.79,0-5.69,0-.11.02-.23.03-.37h1.81v.6c0,1.86-.01,3.71,0,5.57,0,.46.1.93.21,1.38.25,1.05,1.01,1.59,1.91,1.57,1.02-.03,1.65-.56,1.96-1.69.11-.39.13-.81.14-1.21.01-1.84,0-3.67,0-5.51v-.69h1.79c.02.11.05.24.05.37,0,1.95.02,3.91,0,5.86,0,.8-.13,1.59-.48,2.32-.53,1.12-1.39,1.79-2.63,1.98-.09.01-.17.07-.26.11h-1.29Z"/>
          <path class="cls-1" d="M45.46,164c-.36-.08-.72-.14-1.06-.24-.38-.11-.75-.27-1.15-.41.14-.55.26-1.04.39-1.57.13.04.26.06.37.12.8.41,1.66.53,2.55.45.65-.05,1.22-.49,1.35-1.03.16-.62-.04-1.18-.64-1.56-.37-.24-.79-.42-1.2-.59-.66-.28-1.31-.6-1.84-1.1-1.24-1.18-1.04-3.5.57-4.42.88-.51,1.82-.66,2.81-.54.59.08,1.2.14,1.78.54-.13.47-.27.97-.42,1.5-.8-.4-1.59-.54-2.42-.43-.24.03-.49.12-.7.24-.75.46-.81,1.44-.09,1.94.44.31.95.53,1.44.75.6.28,1.19.55,1.7.99,1.39,1.16,1.22,3.84-.6,4.77-.44.22-.95.31-1.42.47-.08.03-.16.07-.24.11h-1.17Z"/>
          <path class="cls-1" d="M55.21,164c-.27-.07-.54-.14-.82-.21-1.99-.49-3.15-1.76-3.53-3.74-.29-1.55-.19-3.07.62-4.47.81-1.38,2.05-2.12,3.61-2.39,1.17-.2,2.28-.05,3.46.34-.13.51-.25,1.01-.38,1.55-.77-.29-1.52-.4-2.31-.36-1.63.08-2.72,1.15-3.07,2.5-.29,1.11-.26,2.21.21,3.25.56,1.24,1.57,1.83,2.91,1.89.76.03,1.5-.07,2.26-.35.1.51.19.98.29,1.47-.45.26-.94.33-1.44.4-.14.02-.28.08-.42.11h-1.41Z"/>
          <path class="cls-1" d="M3.09,164c-.38-.13-.78-.22-1.13-.4-1.16-.58-1.76-1.58-1.9-2.83-.09-.79-.06-1.59.21-2.36.67-1.92,2.55-2.6,4.15-2.34,1.75.29,2.7,1.56,2.94,3.1.16,1,.03,1.94-.39,2.84-.49,1.05-1.34,1.64-2.45,1.88-.09.02-.16.07-.25.11h-1.17ZM1.92,160c-.05.67.09,1.28.46,1.83.72,1.06,2.04,1.04,2.68-.07.63-1.11.63-2.27.07-3.41-.28-.58-.74-.94-1.43-.93-.68.01-1.13.37-1.43.94-.27.51-.39,1.05-.35,1.63Z"/>
          <path class="cls-1" d="M34.18,153.35v10.39h-1.9c-1.47-2.63-3.11-5.22-4.44-8v8h-1.61v-10.4h2.12c1.43,2.56,3.07,5.04,4.25,7.85v-7.84h1.57Z"/>
          <path class="cls-1" d="M25.25,146.15h-1.56c-.03-.33-.06-.65-.09-.99-.05.02-.12.03-.15.07-1.07,1.61-3.68,1.57-4.82-.39-.76-1.31-.7-3.91.24-5.17.91-1.21,3.03-1.9,4.55-.34v-4.18h1.82v10.99ZM23.45,142.36c-.02-.29-.02-.6-.05-.91-.06-.73-.56-1.35-1.19-1.5-.71-.17-1.46.1-1.82.75-.61,1.09-.63,2.23-.03,3.34.31.58,1.06.92,1.63.8.76-.16,1.32-.73,1.4-1.46.04-.33.04-.66.06-1.02Z"/>
          <path class="cls-1" d="M90.2,149.31h-1.87v-10.7h1.52c.04.34.09.68.14,1.05.05-.03.13-.06.16-.11,1.08-1.54,3.89-1.69,4.95.6.77,1.66.7,3.32-.29,4.89-.62.99-2.08,1.68-3.44,1.2-.41-.14-.76-.44-1.17-.69v3.75ZM90.13,142.44s.03,0,.05,0c0,.23,0,.47,0,.7-.03.71.51,1.57,1.33,1.7.91.15,1.55-.15,1.93-1.04.39-.91.39-1.86.01-2.78-.3-.74-.88-1.11-1.63-1.09-.68.02-1.31.5-1.52,1.24-.11.4-.12.84-.17,1.26Z"/>
          <path class="cls-1" d="M.53,135.73h1.85v.65c0,1.95,0,3.91,0,5.86,0,.75.18,1.46.72,2.04.83.9,2.4.67,2.99-.3.39-.64.49-1.35.5-2.07.02-1.86,0-3.71,0-5.57v-.6h1.76c.01.12.02.21.02.31,0,2.15,0,4.3-.01,6.45,0,.73-.21,1.42-.55,2.06-.45.84-1.13,1.36-2.04,1.63-.86.25-1.73.28-2.6.06-1.17-.3-1.96-1.05-2.3-2.19-.2-.66-.34-1.37-.35-2.06-.05-1.99-.02-3.99-.01-5.98,0-.08.01-.15.02-.29Z"/>
          <path class="cls-1" d="M41.8,157.54v1.61h-3.73v3.07h4.18v1.52h-6.03v-10.39h5.8v1.49h-3.96v2.7h3.73Z"/>
          <path class="cls-1" d="M47.85,135.14h1.78c.03.72.01,1.44.02,2.15,0,.72,0,1.44,0,2.22.32-.26.56-.49.84-.68,1.23-.83,3.02-.43,3.62,1.14.13.34.25.71.26,1.07.03,1.68.01,3.36.01,5.08h-1.8c-.01-.15-.03-.32-.03-.49,0-1.21,0-2.42,0-3.64,0-.27,0-.55-.05-.82-.12-.72-.72-1.24-1.36-1.22-.66.02-1.33.59-1.44,1.25-.04.25-.04.51-.04.76,0,1.17,0,2.35,0,3.52v.61c-.61.13-1.19.04-1.8.07v-11.03Z"/>
          <path class="cls-1" d="M7.88,118.35c-.15.55-.27,1.02-.41,1.52-.77-.29-1.52-.4-2.31-.36-1.53.08-2.69,1.03-3.07,2.57-.29,1.15-.24,2.29.31,3.35.57,1.12,1.54,1.66,2.78,1.72.78.04,1.55-.04,2.3-.35.1.51.2.96.3,1.44-.27.27-.65.29-1,.36-1.14.24-2.29.25-3.4-.09-1.61-.49-2.65-1.57-3.11-3.2-.39-1.39-.37-2.78.13-4.13.69-1.83,2.04-2.86,3.97-3.2.97-.17,1.9-.09,2.84.13.22.05.43.15.67.23Z"/>
          <path class="cls-1" d="M73.99,138.6h1.88v.6c0,1.27-.01,2.54,0,3.81,0,.32.06.66.17.97.25.76,1.07,1.11,1.85.66.57-.33.83-.84.83-1.5,0-1.25,0-2.5,0-3.75v-.76c.61-.09,1.18-.04,1.84-.03v7.54c-.44.13-.94.02-1.47.05-.06-.33-.12-.65-.19-1.03-.15.16-.27.3-.39.43-.82.79-1.78,1.03-2.85.66-.96-.33-1.42-1.12-1.55-2.09-.09-.65-.11-1.32-.12-1.98-.02-1.17,0-2.34,0-3.56Z"/>
          <path class="cls-1" d="M16.71,146.15h-1.74c-.01-.19-.03-.36-.03-.53,0-1.27,0-2.54,0-3.81,0-.29-.04-.58-.12-.86-.28-1-1.43-1.32-2.23-.59-.39.36-.58.82-.58,1.35,0,1.27,0,2.54,0,3.81,0,.19,0,.38,0,.61h-1.82v-7.53h1.53c.03.34.06.66.1,1.07.13-.15.23-.25.32-.36,1.02-1.2,3.01-1.22,3.96-.04.49.6.66,1.32.68,2.07.03,1.54,0,3.09,0,4.63,0,.04-.02.07-.06.17Z"/>
          <path class="cls-1" d="M18.31,128.55h-1.86v-7.54h1.5c.05.33.09.65.15,1.06.18-.2.29-.34.42-.46.75-.71,1.62-.97,2.63-.69,1.02.28,1.54,1,1.76,1.97.09.39.12.81.12,1.21.01,1.27,0,2.54,0,3.81v.61h-1.84c0-.22,0-.43,0-.64-.01-1.37,0-2.74-.04-4.1-.02-.6-.29-1.08-.88-1.34-.82-.36-1.8.38-1.93,1.18-.03.21-.04.43-.04.64,0,1.21,0,2.43,0,3.64v.64Z"/>
          <path class="cls-1" d="M61.73,144.64c.09.42.17.82.26,1.25-.96.4-1.97.54-3,.45-.6-.05-1.18-.2-1.71-.53-.78-.48-1.23-1.19-1.45-2.04-.27-1.04-.19-2.08.19-3.09.65-1.74,2.37-2.64,4.2-2.13,1.14.32,1.77,1.18,2.01,2.29.14.66.13,1.35.2,2.1h-4.92c-.06,1.02.65,1.81,1.68,1.93.74.08,1.48.04,2.2-.18.11-.03.22-.04.35-.06ZM60.64,141.55c-.02-.23,0-.42-.05-.61-.29-1.15-1.42-1.59-2.35-.92-.5.36-.71.91-.8,1.53h3.2Z"/>
          <path class="cls-1" d="M113.04,142.96h-4.85c.03,1.08.7,1.81,1.73,1.91.74.08,1.48.05,2.19-.19.09-.03.19-.03.32-.05.09.42.18.83.27,1.28-1.34.48-2.69.66-4.06.22-1.15-.37-1.83-1.23-2.12-2.38-.28-1.07-.19-2.13.23-3.15.72-1.75,2.39-2.55,4.2-2.04,1.09.31,1.68,1.14,1.98,2.19.2.7.19,1.42.11,2.21ZM108.15,141.55h3.19c-.01-.21,0-.38-.04-.55-.25-1.18-1.38-1.64-2.31-1.01-.52.36-.76.91-.84,1.56Z"/>
          <path class="cls-1" d="M72.42,146.15h-1.55c-.05-.22-.09-.44-.16-.73-.52.48-1.06.78-1.7.92-1.27.28-2.79-.59-2.79-2.2,0-1.18.56-1.95,1.59-2.43.7-.33,1.45-.42,2.21-.48.17-.01.34-.02.51-.03.02-.82-.36-1.3-1.11-1.39-.65-.08-1.28.02-1.88.28-.14.06-.28.13-.45.21-.12-.42-.22-.81-.34-1.23.18-.1.33-.19.49-.25.98-.37,1.97-.53,3.03-.32,1.18.24,1.94,1.1,2.06,2.36.08.87.07,1.75.09,2.63.01.86,0,1.72,0,2.64ZM70.58,142.53c-.4,0-.72-.05-1.01.01-.35.08-.71.21-1.02.39-.39.24-.54.65-.5,1.11.04.41.23.74.64.9.76.29,1.81-.35,1.88-1.17.03-.4,0-.81,0-1.25Z"/>
          <path class="cls-1" d="M15.04,125.37h-4.84c.16,1.24.76,1.81,1.93,1.91.77.06,1.51-.02,2.31-.28.1.43.19.83.31,1.31-.4.11-.76.24-1.13.31-.94.18-1.89.25-2.83-.06-1.36-.45-2.08-1.42-2.3-2.81-.2-1.26,0-2.44.71-3.51.85-1.29,2.61-1.78,4.04-1.18,1.12.46,1.61,1.42,1.81,2.54.07.36.07.74.08,1.11,0,.19-.06.38-.1.66ZM10.21,123.94h3.19c-.04-1.27-.74-1.79-1.45-1.83-.9-.06-1.58.67-1.73,1.83Z"/>
          <path class="cls-1" d="M40.89,125.34h-4.73c-.14.65.16,1.29.78,1.63.28.15.61.25.93.29.8.11,1.59,0,2.43-.26.09.43.18.84.28,1.31-.39.11-.74.24-1.09.3-.92.18-1.84.24-2.77-.04-1.44-.43-2.19-1.45-2.39-2.86-.13-.92-.06-1.85.31-2.75.72-1.75,2.52-2.46,4.1-2.03.91.25,1.52.84,1.88,1.69.31.75.42,1.53.37,2.34,0,.11-.06.22-.1.37ZM39.18,123.95c.18-1.07-.61-1.82-1.38-1.85-.91-.04-1.72.83-1.68,1.85h3.07Z"/>
          <path class="cls-1" d="M33.25,142.97h-4.86c0,1.04.68,1.79,1.7,1.91.84.1,1.67,0,2.52-.26.1.43.19.84.29,1.28-.97.4-1.98.54-3.02.46-.27-.02-.54-.08-.8-.15-1.39-.38-2.13-1.32-2.41-2.71-.24-1.18-.07-2.3.5-3.33.86-1.57,2.6-2.07,4.12-1.54,1.03.36,1.56,1.17,1.85,2.18.2.69.14,1.39.12,2.18ZM28.36,141.53c.66.1,2.81.07,3.22-.04-.22-1.24-.69-1.78-1.53-1.79-.85,0-1.45.64-1.69,1.82Z"/>
          <path class="cls-1" d="M10.72,157.62v6.13h-1.76v-6.07c-.37-.03-.69-.06-1.03-.09v-1.38c.33-.02.64-.04.95-.06.07-.52.09-1.03.2-1.51.36-1.62,1.7-2.25,3.11-2.07.22.03.44.1.68.15-.03.49-.05.93-.08,1.44-.62-.11-1.22-.24-1.65.29-.38.48-.44,1.06-.39,1.71h1.57v1.46h-1.59Z"/>
          <path class="cls-1" d="M46.53,144.77c.03.47.06.91.09,1.37-.54.21-1.06.27-1.57.21-1.36-.15-1.86-.94-1.91-2.28-.05-1.13-.01-2.27-.01-3.4v-.62c-.36-.03-.68-.05-1.03-.07v-1.39c.33-.02.63-.04,1-.06v-1.66c.6-.16,1.16-.3,1.77-.46v2.12h1.74v1.47h-1.72v.99c0,.72,0,1.45,0,2.17,0,.16-.01.31.01.47.14.99.41,1.24,1.3,1.13.09-.01.19,0,.34,0Z"/>
          <path class="cls-1" d="M28.42,127.19v1.4c-.7.19-1.39.26-2.08.05-.76-.24-1.28-1.01-1.3-1.96-.02-1.17-.01-2.35-.02-3.52,0-.21,0-.42,0-.69-.36-.03-.68-.05-1.02-.07v-1.38c.33-.02.63-.04,1-.07v-1.66c.61-.16,1.16-.3,1.79-.46v2.16h1.72v1.44h-1.72v.81c0,.9,0,1.8,0,2.7,0,.19.02.39.07.57.15.52.39.69.93.69.19,0,.38,0,.61,0Z"/>
          <path class="cls-1" d="M113.96,145.84c.11-.44.21-.87.32-1.33.45.15.86.3,1.28.41.42.11.85.14,1.26-.04.59-.26.71-.97.21-1.37-.27-.21-.61-.34-.91-.49-.34-.18-.71-.32-1.03-.52-1.45-.94-1.13-2.81.09-3.61.94-.62,2.62-.63,3.64.05-.11.41-.23.83-.36,1.29-.58-.29-1.14-.47-1.73-.38-.22.04-.46.13-.62.27-.3.26-.31.67-.02.93.26.23.58.38.88.55.43.23.89.4,1.29.67,1.27.82,1.12,2.99-.22,3.69-.55.29-1.13.41-1.74.43-.8.03-1.58-.12-2.34-.53Z"/>
          <path class="cls-1" d="M86.76,138.93c-.12.41-.24.83-.37,1.28-.56-.28-1.09-.44-1.67-.39-.49.04-.8.26-.87.63-.07.35.1.66.52.89.24.13.49.23.74.34.19.09.39.16.58.26,1.19.62,1.41,1.38,1.33,2.4-.07.8-.67,1.6-1.74,1.88-1.16.3-2.26.17-3.4-.35.11-.46.22-.9.33-1.34.45.15.87.33,1.3.41.35.07.74.07,1.09,0,.33-.06.6-.26.64-.66.05-.39-.09-.7-.42-.89-.27-.15-.56-.27-.85-.38-.54-.22-1.07-.47-1.46-.93-.81-.96-.52-2.46.6-3.2.9-.59,2.6-.63,3.63.06Z"/>
          <path class="cls-1" d="M105.61,144.6c.08.49.15.92.22,1.38-.72.32-1.45.42-2.18.38-.48-.02-.97-.12-1.42-.29-1.42-.53-2.06-1.66-2.18-3.11-.06-.78-.01-1.55.32-2.29.54-1.19,1.45-1.88,2.71-2.16.93-.2,1.81-.12,2.76.25-.1.48-.2.94-.31,1.41-1.14-.35-2.21-.48-3.07.48-.68.75-.73,2.24-.27,3.04.8,1.39,2.05,1.33,3.42.91Z"/>
          <path class="cls-1" d="M36.14,138.6c.03.47.05.87.08,1.39.55-.97,1.19-1.69,2.42-1.54.05.59.01,1.18.02,1.78-1.64-.2-2.22.93-2.24,2-.02,1.09,0,2.19,0,3.28v.62h-1.82v-7.53h1.53Z"/>
          <path class="cls-1" d="M29.65,120.99h1.47c.05.43.1.85.16,1.35.53-.99,1.21-1.66,2.41-1.5v1.81c-.48-.15-.94-.1-1.32.18-.27.2-.51.48-.66.78-.14.28-.2.63-.2.95-.02,1.11,0,2.23,0,3.34v.62h-1.84v-7.54Z"/>
          <path class="cls-1" d="M98.72,138.61v7.52h-1.81v-7.52h1.81Z"/>
          <path class="cls-1" d="M97.82,137.48c-.6,0-1.03-.43-1.03-1.02,0-.6.42-1.04,1.01-1.05.61-.02,1.07.45,1.06,1.06,0,.59-.43,1-1.04,1Z"/>
        </g>
        <g>
          <path class="cls-1" d="M137.07,105.66c2.91,0,5.72-.9,8.07-2.58l.11-.11-3.03-6.5-.34-.11c-1.35,1.35-3.03,2.02-4.82,2.02-3.81,0-6.84-3.14-6.84-6.84s3.03-6.84,6.84-6.84c1.79,0,3.59.67,4.82,2.02l.22.22,3.14-6.61-.11-.11c-2.35-1.68-5.16-2.58-8.07-2.58-7.74,0-14.01,6.28-14.01,14.01s6.28,14.01,14.01,14.01Z"/>
          <path class="cls-1" d="M161.62,105.32c7.62,0,13.9-6.28,13.9-13.9.11-7.62-6.17-13.9-13.9-13.9s-13.9,6.28-13.9,13.9,6.28,13.9,13.9,13.9ZM161.73,84.69c3.81,0,6.84,3.03,6.84,6.84s-3.03,6.84-6.84,6.84-6.84-3.03-6.84-6.84,3.03-6.84,6.84-6.84Z"/>
          <path class="cls-1" d="M13.98,105.32c3.14,0,7.51-.45,10.54-3.36,2.58-2.58,2.91-5.38,2.91-8.41v-15.25h-8.41v14.46c0,1.35-.22,3.14-1.46,4.26-.78.67-2.02,1.23-3.59,1.23-1.79,0-2.91-.67-3.48-1.23-1.35-1.23-1.46-3.14-1.46-4.26v-14.46H.52v15.81c0,2.91.56,5.49,2.91,7.85,3.03,2.91,7.29,3.36,10.54,3.36Z"/>
          <path class="cls-1" d="M42.45,91.2c0-1.68.22-3.48,1.68-4.93.56-.78,1.68-1.46,3.48-1.46,1.57,0,2.58.45,3.25,1.12,1.35,1.46,1.46,3.59,1.46,5.27v13.45h8.41v-16.59c0-2.13-.22-5.27-2.69-7.74-2.24-2.24-5.27-2.69-7.51-2.69-2.47,0-5.49.56-8.07,3.81v-3.14h-8.41v26.34h8.41v-13.45Z"/>
          <path class="cls-1" d="M80.23,105.43c2.91,0,5.72-.34,8.3-1.91,1.57-1.01,3.92-2.91,5.04-6.61l-7.96-.78c-.67,1.46-1.68,2.02-1.79,2.13-.78.56-2.13.78-3.36.78-1.35,0-3.03-.22-4.37-1.68-1.01-1.23-1.57-3.03-1.57-4.48h19.51v-.9c0-3.25-.56-7.4-3.7-10.65-3.25-3.36-7.51-3.92-10.43-3.92s-6.84.67-9.98,3.81c-2.69,2.69-4.04,6.61-4.04,10.31,0,4.37,1.68,7.85,3.92,10.09,3.03,3.14,6.5,3.81,10.43,3.81ZM76.31,85.03c.78-.78,2.13-1.68,4.26-1.68,1.79,0,3.14.56,4.04,1.46,1.23,1.12,1.57,2.8,1.68,3.03h-11.43c.22-1.12.78-2.13,1.46-2.8Z"/>
          <path class="cls-1" d="M110.5,98.03c-.78.56-2.13.56-2.69.56-1.12,0-2.35-.22-3.48-.78-.9-.34-2.13-1.23-2.91-1.91l-3.59,5.72c3.48,2.91,7.29,3.7,10.76,3.7,2.8,0,5.94-.45,8.52-3.03,1.12-1.12,2.69-3.36,2.69-6.84,0-2.02-.45-3.59-2.02-5.04-1.35-1.23-2.91-1.79-4.37-2.24l-2.24-.67c-1.12-.34-2.02-.56-2.58-.9-.34-.22-.78-.56-.78-1.12,0-.34.22-.78.56-1.12.45-.56,1.46-.78,2.35-.78,1.57,0,3.25.67,4.6,1.46l3.48-5.38c-2.02-1.23-4.82-2.24-8.63-2.24-2.47,0-5.61.56-7.96,2.69-1.57,1.46-2.58,3.48-2.58,6.05,0,1.91.67,3.36,1.91,4.71,1.12,1.01,2.69,1.91,4.26,2.35l2.13.67c1.23.34,2.02.56,2.58.9.67.56.9,1.12.9,1.57,0,.67-.34,1.23-.9,1.68Z"/>
        </g>
        <path class="cls-1" d="M.64,0v62.75h172.14V0H.64ZM66.26,18.57l20.39-6.27,20.39,6.27v1.79l-20.5-6.16-20.28,6.16v-1.79ZM103.35,20.47h-4.93l-11.88-3.59-11.99,3.59h-5.04l17.03-5.27,16.81,5.27ZM66.26,21.59h40.78v1.68h-40.78v-1.68ZM104.69,25.63v15.24s0,1.23-1.46,1.23-1.46-1.23-1.46-1.23v-15.24s0-1.23,1.46-1.23,1.46,1.23,1.46,1.23ZM96.4,25.18c-.34,0-.34.34-.34.34v15.24s.11.34.34.34c.34,0,.34-.34.34-.34v-4.48h1.12v4.48s0,1.23-1.46,1.23-1.34-1.23-1.34-1.23v-15.12s0-1.23,1.34-1.23,1.46,1.23,1.46,1.23v4.03h-1.12v-4.03c.11,0,.11-.45-.34-.45ZM89.68,25.29c-.34,0-.22.34-.22.34v4.03c0,1.34,1.68,5.27,1.68,7.39v3.81s0,1.23-1.46,1.23-1.34-1.23-1.34-1.23v-4.48h1.12v4.48s0,.34.34.34c.22,0,.22-.34.22-.34v-4.15c0-1.68-1.68-5.49-1.68-7.73v-3.36s0-1.23,1.46-1.23,1.34,1.23,1.34,1.23v4.03h-1.12v-4.03s0-.34-.34-.34ZM84.53,32.12v1.01h-1.12v8.07h1.57v.9h-2.69v-17.81h2.35v.9h-1.12v6.95h1.01ZM78.25,24.28v17.81h-.9l-1.12-10.76v10.76h-.9v-17.81h.9l1.12,9.52v-9.52h.9ZM70.07,41.2c.34,0,.34-.34.34-.34v-16.58h1.12v16.58s.11,1.23-1.34,1.23-1.46-1.23-1.46-1.23v-16.58h1.12v16.58c-.11,0-.22.34.22.34ZM66.26,43.1h40.78v1.68h-40.78v-1.68ZM64.02,46.02h45.26v1.68h-45.26v-1.68ZM111.53,50.61h-49.63v-1.68h49.63v1.68Z"/>
        <g>
          <rect class="cls-1" x="249.66" y="71.71" width="6.27" height="27.11"/>
          <rect class="cls-1" x="329.83" y="79.76" width="6.27" height="25.49"/>
          <path class="cls-1" d="M286.87,105.25h-17.07v-13.04c0-3.82-3.11-6.93-6.93-6.93s-6.93,3.11-6.93,6.93v13.04h-15.68l2.67-6.27h6.74v-6.77c0-7.28,5.92-13.2,13.2-13.2s13.2,5.92,13.2,13.2v6.77h4.53v-19.22h6.27v25.49Z"/>
          <polygon class="cls-1" points="240.08 79.6 233.65 94.77 227.6 80.47 227.23 79.6 221.16 79.6 220.79 80.47 214.74 94.77 208.31 79.6 201.5 79.6 212.38 105.28 217.09 105.28 224.19 88.51 231.29 105.28 236.01 105.28 246.88 79.6 240.08 79.6"/>
          <path class="cls-1" d="M278.72,73.54c0-2.77,2.24-5.01,5.01-5.01s5.01,2.24,5.01,5.01-2.24,5.01-5.01,5.01-5.01-2.24-5.01-5.01Z"/>
          <path class="cls-1" d="M327.95,73.54c0-2.77,2.24-5.01,5.01-5.01s5.01,2.24,5.01,5.01-2.24,5.01-5.01,5.01-5.01-2.24-5.01-5.01Z"/>
          <path class="cls-1" d="M318.49,92.21c0-7.28-5.92-13.2-13.2-13.2s-13.2,5.92-13.2,13.2v21.68h6.27v-21.68c0-3.82,3.11-6.93,6.93-6.93s6.93,3.11,6.93,6.93-2.96,6.62-6.6,6.66l-2.63.02v6.27l2.68-.02c7.06-.06,12.81-5.86,12.81-12.93Z"/>
          <g>
            <path class="cls-1" d="M323.27,92.33c0-9.92-8.07-17.99-17.99-17.99h-14.37v2.19h14.37c8.71,0,15.79,7.09,15.79,15.79s-6.79,15.2-15.14,15.27h-2.95v2.2h2.97c9.55-.09,17.31-7.93,17.31-17.47Z"/>
            <path class="cls-1" d="M305.28,70.27h-6.8v2.19h6.8c10.96,0,19.87,8.91,19.87,19.87s-8.6,19.25-19.17,19.35h-2.99v2.21l3-.02c11.77-.11,21.35-9.77,21.35-21.54s-9.9-22.06-22.06-22.06Z"/>
          </g>
          <path class="cls-1" d="M363.37,86.03v-6.27h-11.05c-7.09,0-12.83,5.75-12.83,12.83h0c0,7.09,5.74,12.83,12.83,12.83h11.05v-6.27h-11.05c-3.62,0-6.56-2.94-6.56-6.56h0c0-3.62,2.94-6.56,6.56-6.56h11.05Z"/>
        </g>
        <g>
          <path class="cls-1" d="M204.02,119.33v9.74h-1.57v-9.74h1.57Z"/>
          <path class="cls-1" d="M208.72,123.69c-.94,0-1.69.76-1.66,1.69v3.68h-1.56v-6.9h1.56v1.05c.46-.65,1.21-1.05,1.9-1.05,1.6,0,2.97.93,2.97,3.13v3.77h-1.56v-3.73c0-.94-.51-1.64-1.65-1.64Z"/>
          <path class="cls-1" d="M215.97,129.05c-1.06-.04-2.15-1-2.15-2.24v-3.22h-1.19v-1.52h1.19v-2.45h1.62v2.45h1.82v1.52h-1.82v3.22c0,.42.24.6.58.62.33.01.81-.04,1.05-.09l.31,1.6c-.31.05-.96.13-1.41.12Z"/>
          <path class="cls-1" d="M220.91,122.11c2.2,0,2.85,1.78,2.89,1.87.42,1.06.33,2.3.33,2.3h-5.09c.2.85.81,1.4,1.88,1.4,1.3,0,1.54-.75,1.54-.75l1.37.62s-.63,1.53-2.93,1.53c-2.13,0-3.34-1.6-3.34-3.48s1.2-3.5,3.34-3.5ZM220.92,123.53c-.97,0-1.74.47-1.88,1.49h3.61c-.09-.88-.69-1.49-1.73-1.49Z"/>
          <path class="cls-1" d="M228.68,122.1v1.49c-1.24,0-2.11,1.07-2.11,1.98v3.48h-1.56v-6.93h1.56v1.24c.46-.88,1.51-1.27,2.11-1.27Z"/>
          <path class="cls-1" d="M232.86,123.69c-.94,0-1.69.76-1.66,1.69v3.68h-1.56v-6.9h1.56v1.05c.46-.65,1.21-1.05,1.9-1.05,1.6,0,2.97.93,2.97,3.13v3.77h-1.56v-3.73c0-.94-.51-1.64-1.65-1.64Z"/>
          <path class="cls-1" d="M240.24,122.19c.75,0,1.51.34,2.06,1.07v-1.11h1.57v6.9h-1.57v-.98c-.55.75-1.31,1.09-2.06,1.09-2.09,0-3.29-1.61-3.29-3.48s1.19-3.48,3.29-3.48ZM242.22,125.68c-.01-1.18-.88-2-1.85-2-1.24,0-1.85.86-1.85,2s.6,1.99,1.85,1.99c.97,0,1.83-.82,1.85-1.99Z"/>
          <path class="cls-1" d="M248.06,129.05c-1.06-.04-2.15-1-2.15-2.24v-3.22h-1.19v-1.52h1.19v-2.45h1.62v2.45h1.82v1.52h-1.82v3.22c0,.42.24.6.58.62.33.01.81-.04,1.05-.09l.31,1.6c-.31.05-.96.13-1.41.12Z"/>
          <path class="cls-1" d="M251.2,118.76c.56,0,.86.38.86.85s-.3.86-.86.86-.85-.38-.85-.86.3-.85.85-.85ZM251.97,122.1v6.99h-1.53v-6.99h1.53Z"/>
          <path class="cls-1" d="M256.56,122.11c2.12,0,3.36,1.61,3.36,3.5s-1.24,3.5-3.36,3.5-3.37-1.61-3.37-3.5,1.34-3.5,3.37-3.5ZM258.48,125.61c0-1.14-.75-2-1.92-2s-1.92.86-1.92,2,.75,2.02,1.92,2.02,1.92-.86,1.92-2.02Z"/>
          <path class="cls-1" d="M264.03,123.69c-.94,0-1.69.76-1.66,1.69v3.68h-1.56v-6.9h1.56v1.05c.46-.65,1.21-1.05,1.9-1.05,1.6,0,2.97.93,2.97,3.13v3.77h-1.56v-3.73c0-.94-.51-1.64-1.65-1.64Z"/>
          <path class="cls-1" d="M271.42,122.19c.75,0,1.51.34,2.06,1.07v-1.11h1.57v6.9h-1.57v-.98c-.55.75-1.31,1.09-2.06,1.09-2.09,0-3.29-1.61-3.29-3.48s1.19-3.48,3.29-3.48ZM273.39,125.68c-.01-1.18-.88-2-1.85-2-1.24,0-1.85.86-1.85,2s.6,1.99,1.85,1.99c.97,0,1.83-.82,1.85-1.99Z"/>
          <path class="cls-1" d="M277.78,119.05v10.04h-1.56v-10.04h1.56Z"/>
          <path class="cls-1" d="M281.71,124.2c0-2.72,1.87-4.98,4.8-4.98,1.34,0,2.53.56,3.39,1.45l-1.03,1.18c-.56-.59-1.5-.94-2.37-.94-1.98,0-3.22,1.47-3.22,3.29s1.24,3.3,3.22,3.3c.86,0,1.81-.37,2.37-.96l1.03,1.18c-.86.89-2.05,1.45-3.39,1.45-2.93,0-4.8-2.25-4.8-4.97Z"/>
          <path class="cls-1" d="M293.83,122.11c2.2,0,2.85,1.78,2.89,1.87.42,1.06.33,2.3.33,2.3h-5.09c.2.85.81,1.4,1.88,1.4,1.3,0,1.54-.75,1.54-.75l1.38.62s-.63,1.53-2.93,1.53c-2.13,0-3.34-1.6-3.34-3.48s1.2-3.5,3.34-3.5ZM293.84,123.53c-.97,0-1.74.47-1.88,1.49h3.61c-.09-.88-.69-1.49-1.73-1.49Z"/>
          <path class="cls-1" d="M301.23,123.69c-.94,0-1.69.76-1.66,1.69v3.68h-1.56v-6.9h1.56v1.05c.46-.65,1.21-1.05,1.9-1.05,1.6,0,2.97.93,2.97,3.13v3.77h-1.56v-3.73c0-.94-.51-1.64-1.65-1.64Z"/>
          <path class="cls-1" d="M308.48,129.05c-1.06-.04-2.15-1-2.15-2.24v-3.22h-1.19v-1.52h1.19v-2.45h1.62v2.45h1.82v1.52h-1.82v3.22c0,.42.24.6.58.62.33.01.81-.04,1.05-.09l.31,1.6c-.31.05-.96.13-1.41.12Z"/>
          <path class="cls-1" d="M314.61,122.1v1.49c-1.24,0-2.11,1.07-2.11,1.98v3.48h-1.56v-6.93h1.56v1.24c.46-.88,1.51-1.27,2.11-1.27Z"/>
          <path class="cls-1" d="M318.13,122.11c2.2,0,2.85,1.78,2.89,1.87.42,1.06.33,2.3.33,2.3h-5.09c.2.85.81,1.4,1.88,1.4,1.3,0,1.54-.75,1.54-.75l1.37.62s-.63,1.53-2.93,1.53c-2.13,0-3.34-1.6-3.34-3.48s1.2-3.5,3.34-3.5ZM318.14,123.53c-.97,0-1.74.47-1.88,1.49h3.61c-.09-.88-.69-1.49-1.73-1.49Z"/>
          <path class="cls-1" d="M325.97,129.12v-5.43h-1.15v-1.55h1.15v-1.02c0-1.24,1-2.34,2.21-2.45.62-.04,1.37.22,1.74.48l-.92,1.34c-.16-.1-.46-.21-.71-.2-.46.04-.71.31-.71.82v1.02h2.05v1.55h-2.05v5.43h-1.62Z"/>
          <path class="cls-1" d="M333.27,122.11c2.12,0,3.37,1.61,3.37,3.5s-1.24,3.5-3.37,3.5-3.36-1.61-3.36-3.5,1.34-3.5,3.36-3.5ZM335.2,125.61c0-1.14-.75-2-1.92-2s-1.92.86-1.92,2,.75,2.02,1.92,2.02,1.92-.86,1.92-2.02Z"/>
          <path class="cls-1" d="M341.13,122.1v1.49c-1.24,0-2.11,1.07-2.11,1.98v3.48h-1.56v-6.93h1.56v1.24c.46-.88,1.51-1.27,2.11-1.27Z"/>
          <path class="cls-1" d="M205.27,146.48c-1.06-.04-2.15-1-2.15-2.24v-3.22h-1.19v-1.52h1.19v-2.45h1.62v2.45h1.82v1.52h-1.82v3.22c0,.42.24.6.58.62.33.01.81-.04,1.05-.09l.31,1.6c-.31.05-.96.13-1.41.12Z"/>
          <path class="cls-1" d="M210.89,141.23c-.98,0-1.73.84-1.73,1.77v3.52h-1.57v-10.04h1.57v4.08c.46-.63,1.3-.9,1.77-.9,1.92,0,2.98,1.41,2.98,3.02v3.84h-1.52v-3.63c0-.92-.42-1.66-1.5-1.66Z"/>
          <path class="cls-1" d="M218.22,139.54c2.2,0,2.85,1.78,2.89,1.87.42,1.06.33,2.3.33,2.3h-5.09c.2.85.81,1.4,1.88,1.4,1.3,0,1.54-.75,1.54-.75l1.37.62s-.63,1.53-2.93,1.53c-2.13,0-3.34-1.6-3.34-3.48s1.2-3.5,3.34-3.5ZM218.24,140.95c-.97,0-1.74.47-1.88,1.49h3.61c-.09-.88-.69-1.49-1.73-1.49Z"/>
          <path class="cls-1" d="M226.99,136.75v9.74h-1.57v-9.74h1.57Z"/>
          <path class="cls-1" d="M231.69,141.11c-.94,0-1.69.76-1.66,1.69v3.68h-1.56v-6.9h1.56v1.05c.46-.65,1.21-1.05,1.9-1.05,1.6,0,2.97.93,2.97,3.13v3.77h-1.56v-3.73c0-.94-.51-1.64-1.65-1.64Z"/>
          <path class="cls-1" d="M238.95,146.48c-1.06-.04-2.15-1-2.15-2.24v-3.22h-1.19v-1.52h1.19v-2.45h1.62v2.45h1.82v1.52h-1.82v3.22c0,.42.24.6.58.62.33.01.81-.04,1.05-.09l.31,1.6c-.31.05-.96.13-1.41.12Z"/>
          <path class="cls-1" d="M243.88,139.54c2.2,0,2.85,1.78,2.89,1.87.42,1.06.33,2.3.33,2.3h-5.09c.2.85.81,1.4,1.88,1.4,1.3,0,1.54-.75,1.54-.75l1.37.62s-.63,1.53-2.93,1.53c-2.13,0-3.34-1.6-3.34-3.48s1.2-3.5,3.34-3.5ZM243.9,140.95c-.97,0-1.74.47-1.88,1.49h3.61c-.09-.88-.69-1.49-1.73-1.49Z"/>
          <path class="cls-1" d="M251.66,139.52v1.49c-1.24,0-2.11,1.07-2.11,1.98v3.48h-1.56v-6.93h1.56v1.24c.46-.88,1.51-1.27,2.11-1.27Z"/>
          <path class="cls-1" d="M252.69,139.52h1.57v1.09c.48-.82,1.61-1.09,2.07-1.09,2.03,0,3.3,1.62,3.3,3.5s-1.27,3.51-3.3,3.51c-.47,0-1.58-.24-2.07-1.1v4.01h-1.57v-9.91ZM258.11,143.02c0-1.17-.71-2.06-1.9-2.06-1.01,0-1.89.89-1.89,2.06s.88,2.08,1.89,2.08c1.19,0,1.9-.9,1.9-2.08Z"/>
          <path class="cls-1" d="M264.12,139.52v1.49c-1.24,0-2.11,1.07-2.11,1.98v3.48h-1.56v-6.93h1.56v1.24c.46-.88,1.51-1.27,2.11-1.27Z"/>
          <path class="cls-1" d="M267.64,139.54c2.2,0,2.85,1.78,2.89,1.87.42,1.06.33,2.3.33,2.3h-5.09c.2.85.81,1.4,1.88,1.4,1.3,0,1.54-.75,1.54-.75l1.37.62s-.63,1.53-2.93,1.53c-2.13,0-3.34-1.6-3.34-3.48s1.2-3.5,3.34-3.5ZM267.66,140.95c-.97,0-1.74.47-1.88,1.49h3.61c-.09-.88-.69-1.49-1.73-1.49Z"/>
          <path class="cls-1" d="M274.47,146.48c-1.06-.04-2.15-1-2.15-2.24v-3.22h-1.19v-1.52h1.19v-2.45h1.62v2.45h1.82v1.52h-1.82v3.22c0,.42.24.6.58.62.33.01.81-.04,1.05-.09l.31,1.6c-.31.05-.96.13-1.41.12Z"/>
          <path class="cls-1" d="M279.35,139.62c.75,0,1.51.34,2.06,1.07v-1.11h1.57v6.9h-1.57v-.98c-.55.75-1.31,1.09-2.06,1.09-2.09,0-3.29-1.61-3.29-3.48s1.19-3.48,3.29-3.48ZM281.33,143.1c-.01-1.18-.88-2-1.85-2-1.24,0-1.85.86-1.85,2s.6,1.99,1.85,1.99c.97,0,1.83-.82,1.85-1.99Z"/>
          <path class="cls-1" d="M287.17,146.48c-1.06-.04-2.15-1-2.15-2.24v-3.22h-1.19v-1.52h1.19v-2.45h1.62v2.45h1.82v1.52h-1.82v3.22c0,.42.24.6.58.62.33.01.81-.04,1.05-.09l.31,1.6c-.31.05-.96.13-1.41.12Z"/>
          <path class="cls-1" d="M290.31,136.19c.56,0,.86.38.86.85s-.3.86-.86.86-.85-.38-.85-.86.3-.85.85-.85ZM291.08,139.52v6.99h-1.53v-6.99h1.53Z"/>
          <path class="cls-1" d="M295.66,139.54c2.12,0,3.36,1.61,3.36,3.5s-1.24,3.5-3.36,3.5-3.37-1.61-3.37-3.5,1.34-3.5,3.37-3.5ZM297.59,143.03c0-1.14-.75-2-1.92-2s-1.92.86-1.92,2,.75,2.02,1.92,2.02,1.92-.86,1.92-2.02Z"/>
          <path class="cls-1" d="M303.14,141.11c-.94,0-1.69.76-1.66,1.69v3.68h-1.56v-6.9h1.56v1.05c.46-.65,1.21-1.05,1.9-1.05,1.6,0,2.97.93,2.97,3.13v3.77h-1.56v-3.73c0-.94-.51-1.64-1.65-1.64Z"/>
          <path class="cls-1" d="M313.34,139.62c.75,0,1.51.34,2.06,1.07v-1.11h1.57v6.9h-1.57v-.98c-.55.75-1.31,1.09-2.06,1.09-2.09,0-3.29-1.61-3.29-3.48s1.19-3.48,3.29-3.48ZM315.31,143.1c-.01-1.18-.88-2-1.85-2-1.24,0-1.85.86-1.85,2s.6,1.99,1.85,1.99c.97,0,1.83-.82,1.85-1.99Z"/>
          <path class="cls-1" d="M321.6,141.11c-.94,0-1.69.76-1.66,1.69v3.68h-1.56v-6.9h1.56v1.05c.46-.65,1.21-1.05,1.9-1.05,1.6,0,2.97.93,2.97,3.13v3.77h-1.56v-3.73c0-.94-.51-1.64-1.65-1.64Z"/>
          <path class="cls-1" d="M328.86,139.68c.63,0,1.47.3,1.99,1.06v-4.27h1.58v9.87h-1.58v-.96c-.52.84-1.41,1.06-1.99,1.06-2.03,0-3.17-1.56-3.17-3.39s1.14-3.38,3.17-3.38ZM330.76,143.06c0-1.11-.81-1.9-1.75-1.9-1.19,0-1.74.84-1.74,1.9s.55,1.91,1.74,1.91c.94,0,1.75-.77,1.75-1.91Z"/>
          <path class="cls-1" d="M336.6,136.75h4.08c1.79,0,3.22,1.45,3.22,3.25s-1.43,3.23-3.22,3.23h-2.51v3.26h-1.57v-9.74ZM342.35,140c0-.9-.73-1.64-1.64-1.64h-2.54v3.29h2.54c.9,0,1.64-.76,1.64-1.65Z"/>
          <path class="cls-1" d="M348.44,139.52v1.49c-1.24,0-2.11,1.07-2.11,1.98v3.48h-1.56v-6.93h1.56v1.24c.46-.88,1.51-1.27,2.11-1.27Z"/>
          <path class="cls-1" d="M351.96,139.54c2.2,0,2.85,1.78,2.89,1.87.42,1.06.33,2.3.33,2.3h-5.09c.2.85.81,1.4,1.88,1.4,1.3,0,1.54-.75,1.54-.75l1.37.62s-.63,1.53-2.93,1.53c-2.13,0-3.34-1.6-3.34-3.48s1.2-3.5,3.34-3.5ZM351.97,140.95c-.97,0-1.74.47-1.88,1.49h3.61c-.09-.88-.69-1.49-1.73-1.49Z"/>
          <path class="cls-1" d="M356.84,145.97c-.46-.34-.79-.92-.93-1.19l1.3-.71c.08.17.21.41.48.6.48.33.77.42,1.26.42.18-.01.33-.05.48-.12.14-.05.25-.12.33-.22.13-.18.09-.35-.05-.46-.18-.14-.3-.17-1.22-.5l-.48-.18c-.38-.14-.54-.24-.79-.41-.29-.18-.5-.42-.58-.54-.39-.48-.58-1.34-.18-2.11.45-.82,1.4-1.03,2.02-1.06.55-.01,1.41.1,2.12.63.2.16.38.33.51.51l-1.23.9c-.04-.05-.09-.1-.16-.16-.41-.29-.88-.37-1.24-.38-.29.01-.54.08-.68.28-.1.17-.08.3,0,.42.04.08.13.16.25.24.17.12.33.21.54.27l.47.17c1.22.41,1.62.71,1.87,1.02.37.45.63,1.27.14,2.09-.26.42-.63.67-1.05.86-.33.14-.75.22-1.09.24-.76.03-1.43-.17-2.09-.63Z"/>
          <path class="cls-1" d="M365.5,139.54c2.2,0,2.85,1.78,2.89,1.87.42,1.06.33,2.3.33,2.3h-5.09c.2.85.81,1.4,1.88,1.4,1.3,0,1.54-.75,1.54-.75l1.38.62s-.63,1.53-2.93,1.53c-2.13,0-3.34-1.6-3.34-3.48s1.2-3.5,3.34-3.5ZM365.51,140.95c-.97,0-1.74.47-1.88,1.49h3.61c-.09-.88-.69-1.49-1.73-1.49Z"/>
          <path class="cls-1" d="M372.89,141.11c-.94,0-1.69.76-1.66,1.69v3.68h-1.56v-6.9h1.56v1.05c.46-.65,1.21-1.05,1.9-1.05,1.6,0,2.97.93,2.97,3.13v3.77h-1.56v-3.73c0-.94-.51-1.64-1.65-1.64Z"/>
          <path class="cls-1" d="M380.15,146.48c-1.06-.04-2.15-1-2.15-2.24v-3.22h-1.19v-1.52h1.19v-2.45h1.62v2.45h1.82v1.52h-1.82v3.22c0,.42.24.6.58.62.33.01.81-.04,1.05-.09l.31,1.6c-.31.05-.96.13-1.41.12Z"/>
          <path class="cls-1" d="M385.03,139.62c.75,0,1.51.34,2.06,1.07v-1.11h1.57v6.9h-1.57v-.98c-.55.75-1.31,1.09-2.06,1.09-2.09,0-3.29-1.61-3.29-3.48s1.19-3.48,3.29-3.48ZM387.01,143.1c-.01-1.18-.88-2-1.85-2-1.24,0-1.85.86-1.85,2s.6,1.99,1.85,1.99c.97,0,1.83-.82,1.85-1.99Z"/>
          <path class="cls-1" d="M392.85,146.48c-1.06-.04-2.15-1-2.15-2.24v-3.22h-1.19v-1.52h1.19v-2.45h1.62v2.45h1.82v1.52h-1.82v3.22c0,.42.24.6.58.62.33.01.81-.04,1.05-.09l.31,1.6c-.31.05-.96.13-1.41.12Z"/>
          <path class="cls-1" d="M395.99,136.19c.56,0,.86.38.86.85s-.3.86-.86.86-.85-.38-.85-.86.3-.85.85-.85ZM396.76,139.52v6.99h-1.53v-6.99h1.53Z"/>
          <path class="cls-1" d="M401.34,139.54c2.12,0,3.37,1.61,3.37,3.5s-1.24,3.5-3.37,3.5-3.36-1.61-3.36-3.5,1.34-3.5,3.36-3.5ZM403.27,143.03c0-1.14-.75-2-1.92-2s-1.92.86-1.92,2,.75,2.02,1.92,2.02,1.92-.86,1.92-2.02Z"/>
          <path class="cls-1" d="M408.82,141.11c-.94,0-1.69.76-1.66,1.69v3.68h-1.56v-6.9h1.56v1.05c.46-.65,1.21-1.05,1.9-1.05,1.6,0,2.97.93,2.97,3.13v3.77h-1.56v-3.73c0-.94-.51-1.64-1.65-1.64Z"/>
          <path class="cls-1" d="M419.1,139.54c2.12,0,3.36,1.61,3.36,3.5s-1.24,3.5-3.36,3.5-3.37-1.61-3.37-3.5,1.34-3.5,3.37-3.5ZM421.02,143.03c0-1.14-.75-2-1.92-2s-1.92.86-1.92,2,.75,2.02,1.92,2.02,1.92-.86,1.92-2.02Z"/>
          <path class="cls-1" d="M423.94,146.54v-5.43h-1.15v-1.54h1.15v-1.02c0-1.24,1-2.34,2.21-2.45.62-.04,1.37.22,1.74.48l-.92,1.34c-.16-.1-.46-.21-.71-.2-.46.04-.71.31-.71.82v1.02h2.05v1.54h-2.05v5.43h-1.62Z"/>
          <path class="cls-1" d="M213.09,163.91h-1.54l-2.19-7.1-2.45,7.1h-1.51l-3.1-9.74h1.61l2.3,7.28,2.28-7.27h1.69l2.19,7.27,2.16-7.28h1.61l-3.05,9.74Z"/>
          <path class="cls-1" d="M219.28,156.96c2.12,0,3.37,1.61,3.37,3.5s-1.24,3.5-3.37,3.5-3.36-1.61-3.36-3.5,1.34-3.5,3.36-3.5ZM221.21,160.46c0-1.14-.75-2-1.92-2s-1.92.86-1.92,2,.75,2.02,1.92,2.02,1.92-.86,1.92-2.02Z"/>
          <path class="cls-1" d="M227.14,156.95v1.49c-1.24,0-2.11,1.07-2.11,1.98v3.48h-1.56v-6.93h1.56v1.24c.46-.88,1.51-1.27,2.11-1.27Z"/>
          <path class="cls-1" d="M229.55,153.9v10.04h-1.56v-10.04h1.56Z"/>
          <path class="cls-1" d="M233.5,157.1c.63,0,1.47.3,1.99,1.06v-4.27h1.58v9.87h-1.58v-.96c-.52.84-1.41,1.06-1.99,1.06-2.03,0-3.17-1.56-3.17-3.39s1.14-3.38,3.17-3.38ZM235.4,160.48c0-1.11-.81-1.9-1.75-1.9-1.19,0-1.74.84-1.74,1.9s.55,1.91,1.74,1.91c.94,0,1.75-.77,1.75-1.91Z"/>
          <path class="cls-1" d="M249.13,163.91h-1.58v-4.23h-4.73v4.23h-1.57v-9.74h1.57v3.97h4.73v-3.97h1.58v9.74Z"/>
          <path class="cls-1" d="M253.65,156.96c2.2,0,2.85,1.78,2.89,1.87.42,1.06.33,2.3.33,2.3h-5.09c.2.85.81,1.4,1.88,1.4,1.3,0,1.54-.75,1.54-.75l1.37.62s-.63,1.53-2.93,1.53c-2.13,0-3.34-1.6-3.34-3.48s1.2-3.5,3.34-3.5ZM253.66,158.37c-.97,0-1.74.47-1.88,1.49h3.61c-.09-.88-.69-1.49-1.73-1.49Z"/>
          <path class="cls-1" d="M261.43,156.95v1.49c-1.24,0-2.11,1.07-2.11,1.98v3.48h-1.56v-6.93h1.56v1.24c.46-.88,1.51-1.27,2.11-1.27Z"/>
          <path class="cls-1" d="M263.29,153.61c.56,0,.86.38.86.85s-.3.86-.86.86-.85-.38-.85-.86.3-.85.85-.85ZM264.06,156.95v6.99h-1.53v-6.99h1.53Z"/>
          <path class="cls-1" d="M268.43,163.9c-1.06-.04-2.15-1-2.15-2.24v-3.22h-1.19v-1.52h1.19v-2.45h1.62v2.45h1.82v1.52h-1.82v3.22c0,.42.24.6.58.62.33.01.81-.04,1.05-.09l.31,1.6c-.31.05-.96.13-1.41.12Z"/>
          <path class="cls-1" d="M273.31,157.04c.75,0,1.51.34,2.06,1.07v-1.11h1.57v6.9h-1.57v-.98c-.55.75-1.31,1.09-2.06,1.09-2.09,0-3.29-1.61-3.29-3.48s1.19-3.48,3.29-3.48ZM275.29,160.52c-.01-1.18-.88-2-1.85-2-1.24,0-1.85.86-1.85,2s.6,1.99,1.85,1.99c.97,0,1.83-.82,1.85-1.99Z"/>
          <path class="cls-1" d="M281.26,156.99c.58,0,1.51.21,2.06,1.06v-1.1h1.57v6.56c-.01,2.17-1.68,3.35-3.7,3.35-1.22,0-2.4-.6-3.04-1.57l1.32-.88c.46.69,1.23.92,1.72.92.89,0,2.12-.43,2.13-1.62v-.86c-.62.85-1.47,1.11-2.06,1.11-2.09,0-3.29-1.49-3.29-3.5s1.19-3.47,3.29-3.47ZM283.2,160.44c0-1.1-.85-1.95-1.82-1.95-1.23,0-1.81.85-1.81,1.95s.58,1.99,1.81,1.99c.97,0,1.82-.85,1.82-1.99Z"/>
          <path class="cls-1" d="M289,156.96c2.2,0,2.85,1.78,2.89,1.87.42,1.06.33,2.3.33,2.3h-5.09c.2.85.81,1.4,1.88,1.4,1.3,0,1.54-.75,1.54-.75l1.38.62s-.63,1.53-2.93,1.53c-2.13,0-3.34-1.6-3.34-3.48s1.2-3.5,3.34-3.5ZM289.01,158.37c-.97,0-1.74.47-1.88,1.49h3.61c-.09-.88-.69-1.49-1.73-1.49Z"/>
          <path class="cls-1" d="M297.65,163.39c-.96-.6-1.41-1.48-1.54-1.86l1.47-.52c.07.24.31.68.88,1.05.75.47,1.27.59,2.04.48.22-.03.56-.09.86-.24.31-.16.51-.34.66-.59.21-.38.14-.82-.11-1.11-.21-.24-.67-.44-2.05-.88l-.67-.21c-.51-.16-.92-.34-1.26-.58-.41-.29-.68-.59-.76-.69-.48-.63-.73-1.7-.33-2.59.5-1.13,1.65-1.58,2.5-1.66.8-.08,1.98.03,3.01.68.34.21.6.41.83.65l-1.18,1.02c-.1-.1-.25-.22-.45-.34-.71-.46-1.43-.54-2.04-.5-.48.07-.98.21-1.23.76-.16.34-.1.69.1,1.01.12.14.24.27.45.41.21.14.41.22.79.35l.66.2c1.7.52,2.34.93,2.76,1.34.55.52.93,1.61.41,2.75-.28.55-.73,1.06-1.4,1.37-.39.18-.95.38-1.41.41-1.06.13-2-.1-2.97-.71Z"/>
          <path class="cls-1" d="M305.7,153.61c.56,0,.86.38.86.85s-.3.86-.86.86-.85-.38-.85-.86.3-.85.85-.85ZM306.47,156.95v6.99h-1.53v-6.99h1.53Z"/>
          <path class="cls-1" d="M310.85,163.9c-1.06-.04-2.15-1-2.15-2.24v-3.22h-1.19v-1.52h1.19v-2.45h1.62v2.45h1.82v1.52h-1.82v3.22c0,.42.24.6.58.62.33.01.81-.04,1.05-.09l.31,1.6c-.31.05-.96.13-1.41.12Z"/>
          <path class="cls-1" d="M315.78,156.96c2.2,0,2.85,1.78,2.89,1.87.42,1.06.33,2.3.33,2.3h-5.09c.2.85.81,1.4,1.88,1.4,1.3,0,1.54-.75,1.54-.75l1.37.62s-.63,1.53-2.93,1.53c-2.13,0-3.34-1.6-3.34-3.48s1.2-3.5,3.34-3.5ZM315.8,158.37c-.97,0-1.74.47-1.88,1.49h3.61c-.09-.88-.69-1.49-1.73-1.49Z"/>
          <path class="cls-1" d="M320.67,163.39c-.46-.34-.79-.92-.93-1.19l1.3-.71c.08.17.21.41.48.6.48.33.77.42,1.26.42.18-.01.33-.05.48-.12.14-.05.25-.12.33-.22.13-.18.09-.35-.05-.46-.18-.14-.3-.17-1.22-.5l-.48-.18c-.38-.14-.54-.24-.79-.41-.29-.18-.5-.42-.58-.54-.39-.48-.58-1.34-.18-2.11.45-.82,1.4-1.03,2.02-1.06.55-.01,1.41.11,2.12.63.2.16.38.33.51.51l-1.23.9c-.04-.05-.09-.11-.16-.16-.41-.29-.88-.37-1.24-.38-.29.01-.54.08-.68.28-.1.17-.08.3,0,.42.04.08.13.16.25.24.17.12.33.21.54.27l.47.17c1.22.41,1.62.71,1.87,1.02.37.45.63,1.27.14,2.09-.26.42-.63.67-1.05.86-.33.14-.75.22-1.09.24-.76.03-1.43-.17-2.09-.63Z"/>
        </g>
      </g>
      <path class="cls-1" d="M102.84,25.63v15.24s0,.34.45.34c.34,0,.34-.34.34-.34v-15.24s0-.34-.45-.34c-.34,0-.34.34-.34.34Z"/>
    </g>
  </g>
</svg>