<?xml version="1.0" encoding="UTF-8"?>
<svg id="_레이어_2" data-name="레이어 2" xmlns="http://www.w3.org/2000/svg" viewBox="0 0 124.32 78.78">
  <defs>
    <style>
      .cls-1 {
        fill: #11b5ea;
      }

      .cls-2 {
        fill: #fff;
      }

      .cls-3 {
        fill: #00529b;
      }

      .cls-4 {
        fill: #7ac142;
      }
    </style>
  </defs>
  <g id="Layer_1" data-name="Layer 1">
    <g>
      <path class="cls-4" d="M88.1,0H13.26C6.67.11,1.37,5.43,1.27,12.02h0v26.38h9.14s.06,0,.09,0h77.6V0Z"/>
      <path class="cls-1" d="M117.5,6.35s-.06,0-.09,0H47.94c-7.06.26-9.05,4.51-9.05,6.85h0v31.56h73.25c6.59-.11,11.88-5.42,11.98-12.02h0V11.57h0v-5.22h-6.61Z"/>
      <path class="cls-3" d="M88.1,38.41V6.35h-40.17c-7.06.26-9.05,4.38-9.05,6.85h0v25.21h49.22Z"/>
      <path class="cls-2" d="M112.51,38.14h-9.13c-3.74,0-6.64-.87-8.68-2.6-2.24-1.88-3.37-4.74-3.37-8.57s.85-6.57,2.55-8.55c1.99-2.32,5.21-3.48,9.65-3.48h8.98v3.85h-8.91c-2.5,0-4.26.79-5.28,2.39-.77,1.22-1.16,3-1.16,5.35v1.17c0,1.85.3,3.25.9,4.18,1,1.56,2.85,2.33,5.54,2.33h8.91v3.92Z"/>
      <path class="cls-2" d="M12.48,38.44h5.31v-9.1h6.5l5.75,9.1h5.9l-6.27-9.74c1.79-.37,3.12-1.15,4-2.32.77-1.04,1.16-2.42,1.16-4.15,0-2.53-.79-4.35-2.39-5.46-1.42-1-3.63-1.49-6.62-1.49h-13.34v23.15ZM28.01,24.96c-.6.25-1.77.36-3.52.36h-6.71v-4h0v-1.96h2.18s4.49,0,4.49,0c1.74,0,3.02.21,3.82.63.8.42,1.2,1.19,1.2,2.32,0,1.37-.49,2.25-1.46,2.65Z"/>
      <path class="cls-2" d="M60.98,38.43h5.36v-8.16h7.71c2.39,0,4.39-.37,5.99-1.12,2.59-1.21,3.89-3.34,3.89-6.39,0-2.62-.84-4.53-2.53-5.72-1.69-1.2-4.56-1.78-8.63-1.78h-11.8v23.18ZM72.96,26.23h-6.63v-5.13h0v-1.76h1.8c.06,0,.12,0,.19,0h4.33c1.85,0,3.2.25,4.06.74.86.5,1.29,1.4,1.29,2.7,0,2.3-1.68,3.45-5.05,3.45Z"/>
      <path class="cls-2" d="M51.56,38.39h-5.42V15.21h5.42v23.18Z"/>
    </g>
    <g>
      <path class="cls-3" d="M1.36,71.65c.36-.07.87-.12,1.34-.12.75,0,1.24.14,1.58.45.27.23.43.61.43,1.03,0,.71-.46,1.18-1.02,1.37v.02c.41.15.66.54.8,1.1.18.75.31,1.28.41,1.49h-.73c-.09-.15-.21-.62-.35-1.3-.16-.75-.46-1.03-1.09-1.05h-.66v2.35h-.7v-5.35ZM2.06,74.12h.72c.75,0,1.22-.41,1.22-1.03,0-.7-.51-1.01-1.25-1.01-.34,0-.57.03-.69.06v1.97Z"/>
      <path class="cls-3" d="M6.1,75.17c.02.96.62,1.35,1.33,1.35.51,0,.82-.09,1.08-.19l.13.5c-.25.11-.69.25-1.3.25-1.19,0-1.92-.79-1.92-1.96s.7-2.11,1.84-2.11c1.27,0,1.6,1.12,1.6,1.84,0,.14,0,.26-.02.34h-2.73ZM8.17,74.66c0-.44-.19-1.15-.97-1.15-.73,0-1.03.66-1.09,1.15h2.06Z"/>
      <path class="cls-3" d="M13.06,76.43c0,.9-.19,1.44-.55,1.79-.39.35-.94.47-1.43.47s-.98-.11-1.3-.32l.18-.55c.25.17.66.31,1.14.31.73,0,1.26-.38,1.26-1.37v-.43h-.02c-.21.36-.64.65-1.24.65-.96,0-1.66-.82-1.66-1.91,0-1.32.86-2.06,1.76-2.06.67,0,1.04.35,1.21.67h.02l.02-.58h.63c-.02.28-.03.59-.03,1.06v2.26ZM12.35,74.63c0-.11,0-.22-.04-.31-.13-.42-.47-.76-.99-.76-.68,0-1.16.57-1.16,1.48,0,.75.39,1.4,1.15,1.4.44,0,.84-.27.99-.73.04-.11.05-.25.05-.38v-.7Z"/>
      <path class="cls-3" d="M14.56,72.39c-.26,0-.44-.21-.44-.46s.19-.45.46-.45.45.2.45.45-.18.46-.46.46h-.01ZM14.23,77v-3.9h.71v3.9h-.71Z"/>
      <path class="cls-3" d="M17.7,77.09c-1.05,0-1.86-.77-1.86-2.01,0-1.3.86-2.07,1.93-2.07s1.87.81,1.87,2c0,1.45-1,2.08-1.93,2.08h-.01ZM17.72,76.56c.68,0,1.18-.64,1.18-1.52,0-.66-.33-1.49-1.17-1.49s-1.19.77-1.19,1.51c0,.85.49,1.5,1.17,1.5h0Z"/>
      <path class="cls-3" d="M20.53,74.16c0-.41,0-.73-.03-1.06h.62l.04.64h.02c.19-.36.64-.73,1.29-.73.54,0,1.37.32,1.37,1.66v2.33h-.71v-2.25c0-.63-.23-1.16-.9-1.16-.46,0-.82.33-.95.73-.03.08-.05.22-.05.33v2.35h-.71v-2.84Z"/>
      <path class="cls-3" d="M27.75,76.07c0,.34.01.67.05.93h-.63l-.07-.49h-.02c-.21.3-.63.58-1.19.58-.79,0-1.19-.56-1.19-1.12,0-.94.83-1.46,2.35-1.45v-.08c0-.32-.09-.91-.89-.9-.37,0-.75.1-1.03.29l-.16-.47c.33-.2.8-.34,1.29-.34,1.19,0,1.49.81,1.49,1.6v1.46ZM27.06,75.01c-.77-.02-1.65.12-1.65.88,0,.47.31.68.66.68.51,0,.84-.32.96-.66.03-.07.03-.15.03-.22v-.68Z"/>
      <path class="cls-3" d="M28.88,71.29h.71v5.71h-.71v-5.71Z"/>
      <path class="cls-3" d="M33.2,71.58v5.42h-.71v-5.42h.71Z"/>
      <path class="cls-3" d="M34.4,74.16c0-.41,0-.73-.03-1.06h.63l.04.64h.02c.19-.36.64-.73,1.29-.73.54,0,1.38.32,1.38,1.66v2.33h-.71v-2.25c0-.63-.23-1.16-.9-1.16-.46,0-.82.33-.95.73-.03.08-.05.22-.05.33v2.35h-.71v-2.84Z"/>
      <path class="cls-3" d="M39.69,72.17v.93h1.01v.54h-1.01v2.1c0,.48.14.76.53.76.19,0,.31-.02.41-.05l.03.54c-.13.05-.35.1-.62.1-.33,0-.6-.11-.77-.3-.19-.22-.27-.56-.27-1.02v-2.12h-.6v-.54h.6v-.71l.69-.22Z"/>
      <path class="cls-3" d="M41.85,75.17c.02.96.62,1.35,1.33,1.35.51,0,.83-.09,1.08-.19l.13.5c-.25.11-.68.25-1.31.25-1.19,0-1.91-.79-1.91-1.96s.7-2.11,1.84-2.11c1.27,0,1.6,1.12,1.6,1.84,0,.14-.01.26-.02.34h-2.73ZM43.92,74.66c0-.44-.18-1.15-.97-1.15-.72,0-1.03.66-1.08,1.15h2.06Z"/>
      <path class="cls-3" d="M45.49,71.29h.7v5.71h-.7v-5.71Z"/>
      <path class="cls-3" d="M47.37,71.29h.71v5.71h-.71v-5.71Z"/>
      <path class="cls-3" d="M49.66,75.17c.01.96.62,1.35,1.33,1.35.51,0,.81-.09,1.07-.19l.13.5c-.25.11-.68.25-1.3.25-1.19,0-1.92-.79-1.92-1.96s.7-2.11,1.84-2.11c1.27,0,1.6,1.12,1.6,1.84,0,.14,0,.26-.03.34h-2.72ZM51.73,74.66c0-.44-.19-1.15-.97-1.15-.73,0-1.03.66-1.09,1.15h2.06Z"/>
      <path class="cls-3" d="M56.07,76.86c-.18.09-.59.23-1.12.23-1.17,0-1.94-.8-1.94-2s.82-2.07,2.09-2.07c.42,0,.79.1.98.21l-.16.54c-.17-.09-.44-.18-.82-.18-.89,0-1.38.67-1.38,1.48,0,.9.58,1.46,1.35,1.46.4,0,.67-.1.87-.19l.12.53Z"/>
      <path class="cls-3" d="M57.86,72.17v.93h1.01v.54h-1.01v2.1c0,.48.13.76.53.76.19,0,.3-.02.41-.05l.04.54c-.14.05-.36.1-.63.1-.33,0-.59-.11-.76-.3-.19-.22-.27-.56-.27-1.02v-2.12h-.61v-.54h.61v-.71l.69-.22Z"/>
      <path class="cls-3" d="M62.93,75.94c0,.4,0,.76.03,1.06h-.62l-.04-.64h-.02c-.17.32-.6.73-1.29.73-.61,0-1.34-.34-1.34-1.71v-2.28h.71v2.15c0,.74.24,1.25.87,1.25.48,0,.8-.33.93-.65.04-.1.07-.22.07-.36v-2.38h.71v2.83Z"/>
      <path class="cls-3" d="M66.85,76.07c0,.34.02.67.06.93h-.63l-.06-.49h-.02c-.21.3-.64.58-1.2.58-.79,0-1.19-.56-1.19-1.12,0-.94.84-1.46,2.34-1.45v-.08c0-.32-.1-.91-.89-.9-.37,0-.75.1-1.03.29l-.16-.47c.32-.2.79-.34,1.29-.34,1.2,0,1.48.81,1.48,1.6v1.46ZM66.15,75.01c-.77-.02-1.65.12-1.65.88,0,.47.31.68.67.68.51,0,.84-.32.96-.66.02-.07.03-.15.03-.22v-.68Z"/>
      <path class="cls-3" d="M67.98,71.29h.71v5.71h-.71v-5.71Z"/>
      <path class="cls-3" d="M71.6,71.64c.34-.06.78-.11,1.35-.11.69,0,1.2.16,1.52.45.3.26.48.65.48,1.14s-.15.88-.42,1.16c-.37.39-.98.59-1.66.59-.21,0-.4,0-.56-.05v2.17h-.7v-5.36ZM72.3,74.25c.15.04.35.06.58.06.85,0,1.36-.42,1.36-1.15s-.5-1.07-1.28-1.07c-.31,0-.54.04-.66.06v2.11Z"/>
      <path class="cls-3" d="M75.73,74.32c0-.46-.01-.86-.04-1.22h.62l.03.76h.02c.18-.52.61-.85,1.09-.85.07,0,.12,0,.19.02v.66c-.08,0-.15-.02-.25-.02-.5,0-.86.38-.95.9-.01.1-.02.22-.02.34v2.08h-.71v-2.68Z"/>
      <path class="cls-3" d="M79.9,77.09c-1.05,0-1.87-.77-1.87-2.01,0-1.3.86-2.07,1.93-2.07s1.87.81,1.87,2c0,1.45-1,2.08-1.93,2.08h0ZM79.92,76.56c.68,0,1.18-.64,1.18-1.52,0-.66-.33-1.49-1.17-1.49s-1.19.77-1.19,1.51c0,.85.48,1.5,1.17,1.5h0Z"/>
      <path class="cls-3" d="M82.73,74.38c0-.5,0-.9-.03-1.27h.64l.04.67h.02c.28-.48.75-.75,1.37-.75.96,0,1.66.79,1.66,1.98,0,1.4-.87,2.1-1.77,2.1-.52,0-.97-.23-1.2-.61h-.01v2.12h-.71v-4.21ZM83.44,75.42c0,.09,0,.2.03.29.12.49.56.83,1.05.83.75,0,1.18-.61,1.18-1.5,0-.78-.4-1.45-1.15-1.45-.48,0-.94.34-1.08.87-.02.1-.04.2-.04.29v.68Z"/>
      <path class="cls-3" d="M87.72,75.17c.02.96.62,1.35,1.33,1.35.51,0,.82-.09,1.08-.19l.13.5c-.24.11-.68.25-1.3.25-1.19,0-1.91-.79-1.91-1.96s.7-2.11,1.83-2.11c1.28,0,1.6,1.12,1.6,1.84,0,.14,0,.26-.02.34h-2.73ZM89.79,74.66c0-.44-.18-1.15-.97-1.15-.72,0-1.03.66-1.08,1.15h2.06Z"/>
      <path class="cls-3" d="M91.36,74.32c0-.46,0-.86-.03-1.22h.62l.03.76h.02c.18-.52.61-.85,1.09-.85.07,0,.12,0,.19.02v.66c-.08,0-.15-.02-.24-.02-.5,0-.86.38-.96.9-.01.1-.02.22-.02.34v2.08h-.71v-2.68Z"/>
      <path class="cls-3" d="M95.03,72.17v.93h1.01v.54h-1.01v2.1c0,.48.13.76.53.76.19,0,.3-.02.41-.05l.03.54c-.14.05-.35.1-.63.1-.33,0-.59-.11-.76-.3-.2-.22-.28-.56-.28-1.02v-2.12h-.6v-.54h.6v-.71l.7-.22Z"/>
      <path class="cls-3" d="M97.17,73.1l.84,2.3c.1.26.2.56.26.8h.01c.08-.24.16-.53.26-.82l.77-2.28h.74l-1.06,2.78c-.51,1.34-.85,2.02-1.33,2.45-.36.29-.7.42-.87.45l-.17-.6c.17-.05.41-.16.62-.34.19-.15.43-.42.59-.79.03-.07.06-.12.06-.17,0-.03-.02-.1-.06-.17l-1.43-3.6h.78Z"/>
      <path class="cls-3" d="M106.22,76.83c-.25.13-.77.26-1.44.26-1.53,0-2.67-.97-2.67-2.75s1.15-2.85,2.83-2.85c.67,0,1.11.14,1.29.24l-.18.57c-.26-.13-.64-.22-1.09-.22-1.27,0-2.12.81-2.12,2.24,0,1.33.77,2.18,2.08,2.18.43,0,.87-.09,1.15-.23l.14.56Z"/>
      <path class="cls-3" d="M107.39,75.17c.02.96.62,1.35,1.33,1.35.5,0,.82-.09,1.08-.19l.13.5c-.25.11-.69.25-1.3.25-1.19,0-1.92-.79-1.92-1.96s.7-2.11,1.83-2.11c1.28,0,1.6,1.12,1.6,1.84,0,.14,0,.26-.02.34h-2.73ZM109.46,74.66c0-.44-.18-1.15-.97-1.15-.72,0-1.03.66-1.09,1.15h2.06Z"/>
      <path class="cls-3" d="M111.02,74.16c0-.41,0-.73-.03-1.06h.63l.04.64h.02c.19-.36.64-.73,1.28-.73.54,0,1.38.32,1.38,1.66v2.33h-.71v-2.25c0-.63-.23-1.16-.9-1.16-.46,0-.82.33-.95.73-.03.08-.05.22-.05.33v2.35h-.7v-2.84Z"/>
      <path class="cls-3" d="M116.31,72.17v.93h1.02v.54h-1.02v2.1c0,.48.14.76.54.76.19,0,.3-.02.41-.05l.03.54c-.14.05-.36.1-.63.1-.33,0-.59-.11-.76-.3-.2-.22-.27-.56-.27-1.02v-2.12h-.6v-.54h.6v-.71l.69-.22Z"/>
      <path class="cls-3" d="M118.48,75.17c.01.96.62,1.35,1.33,1.35.5,0,.82-.09,1.08-.19l.13.5c-.25.11-.69.25-1.3.25-1.19,0-1.92-.79-1.92-1.96s.7-2.11,1.83-2.11c1.27,0,1.6,1.12,1.6,1.84,0,.14,0,.26-.03.34h-2.72ZM120.54,74.66c.01-.44-.18-1.15-.97-1.15-.72,0-1.03.66-1.09,1.15h2.06Z"/>
      <path class="cls-3" d="M122.12,74.32c0-.46-.01-.86-.03-1.22h.62l.03.76h.03c.17-.52.61-.85,1.09-.85.07,0,.13,0,.19.02v.66c-.07,0-.15-.02-.24-.02-.5,0-.86.38-.95.9-.02.1-.02.22-.02.34v2.08h-.71v-2.68Z"/>
    </g>
    <g>
      <path class="cls-3" d="M8.03,63.99l-1.3,1.28c-.55-.38-1.08-.95-1.61-1.71-.53-.76-.88-1.49-1.06-2.18-.16.71-.49,1.42-1,2.16-.51.73-1.09,1.35-1.75,1.84l-1.31-1.28c1.1-.97,1.85-2.04,2.26-3.21.38-1.07.57-2.58.57-4.5v-.6H.65v-1.66h6.76v1.66h-2.18v.6c0,1.8.22,3.31.65,4.52.45,1.24,1.17,2.27,2.15,3.08ZM10.98,68.49h-2.17v-8.61h-2.28v-1.66h2.28v-4.33h2.17v14.6ZM14.1,68.66h-2.24v-14.78h2.24v14.78Z"/>
      <path class="cls-3" d="M30.47,63.88h-5.96v4.79h-2.54v-4.79h-5.94v-1.64h14.44v1.64ZM29.54,59.23l-.57,1.64c-1.1-.15-2.2-.5-3.3-1.06-1.14-.58-1.93-1.21-2.37-1.88-.41.68-1.16,1.3-2.24,1.85-1.04.54-2.19.9-3.45,1.09l-.62-1.66c2.98-.57,4.59-1.75,4.84-3.56h-4.11v-1.66h11.05v1.66h-4.11c.13.85.64,1.6,1.55,2.24.87.62,1.99,1.06,3.33,1.33Z"/>
      <path class="cls-3" d="M41.61,63.59l-1.15,1.44c-.67-.32-1.4-.89-2.17-1.71-.77-.83-1.28-1.58-1.51-2.27-.23.74-.7,1.5-1.41,2.28-.71.79-1.48,1.4-2.32,1.86l-1.22-1.42c1.36-.92,2.3-1.94,2.83-3.08.48-1.04.73-2.44.73-4.19v-.71h-2.95v-1.66h8.55v1.66h-2.97v.71c0,1.62.27,2.99.82,4.11.58,1.17,1.51,2.16,2.78,2.99ZM45.22,68.66h-2.54v-14.78h2.54v14.78Z"/>
      <path class="cls-3" d="M57.18,60.46l-.98,1.44c-.73-.24-1.45-.68-2.17-1.31-.72-.63-1.21-1.25-1.46-1.85-.24.62-.72,1.25-1.43,1.9-.71.64-1.49,1.15-2.33,1.52l-1.03-1.47c1.25-.64,2.14-1.4,2.66-2.28.52-.87.78-2.03.78-3.48v-.87h2.57v.84c0,1.39.29,2.54.87,3.45.54.86,1.37,1.57,2.51,2.12ZM60.93,64l-.27,4.66h-2.32v-3.63c0-.33-.16-.49-.47-.49h-7.32v-1.66h9.36c.73,0,1.07.37,1.03,1.12ZM60.86,62.18h-2.54v-8.3h2.54v8.3Z"/>
      <path class="cls-3" d="M71.15,63.94l-1.25,1.23c-.56-.38-1.1-.97-1.63-1.76-.53-.79-.87-1.55-1.04-2.27-.14.74-.47,1.49-.99,2.26-.52.77-1.12,1.4-1.79,1.88l-1.26-1.22c1.08-.95,1.83-2.03,2.24-3.26.36-1.08.54-2.59.54-4.5v-.52h-2.1v-1.66h6.64v1.66h-2.1v.52c0,1.8.21,3.3.62,4.49.43,1.25,1.14,2.3,2.13,3.15ZM77.31,68.66h-2.24v-8.72h-1.44v8.55h-2.16v-14.6h2.16v4.39h1.44v-4.39h2.24v14.78Z"/>
      <path class="cls-3" d="M88.36,60.94l-.98,1.42c-.71-.24-1.42-.69-2.15-1.35-.73-.66-1.21-1.29-1.45-1.91-.22.63-.68,1.28-1.38,1.94-.7.66-1.47,1.17-2.31,1.53l-1.03-1.47c1.23-.61,2.11-1.38,2.64-2.31.51-.9.76-2.07.76-3.51v-1.2h2.58v1.17c0,2.69,1.11,4.58,3.33,5.69ZM92.39,68.43h-9.15c-.42,0-.72-.08-.91-.25-.18-.16-.28-.45-.28-.85v-4.06h2.54v3.08c0,.26.15.39.46.39h7.33v1.68ZM94.26,58.91h-2.45v5.12h-2.54v-10.15h2.54v3.37h2.45v1.66Z"/>
      <path class="cls-3" d="M102.84,61.13l-1.09,1.34c-.54-.27-1.08-.72-1.61-1.33s-.89-1.21-1.07-1.78c-.14.57-.49,1.18-1.06,1.83-.57.65-1.18,1.15-1.82,1.5l-1.15-1.34c1.06-.72,1.79-1.53,2.2-2.43.38-.84.57-2.02.57-3.54v-1.33h2.4v1.33c0,1.42.21,2.58.62,3.47.41.89,1.09,1.65,2.02,2.28ZM109.22,68.43h-9.77c-.79,0-1.19-.38-1.19-1.14v-3.98h2.47v3.03c0,.27.14.41.43.41h8.06v1.68ZM105.7,63.8h-2.16v-5.41h-2.05v-1.66h2.05v-2.84h2.16v9.91ZM108.84,63.83h-2.24v-9.94h2.24v9.94Z"/>
      <path class="cls-3" d="M120.4,64.3c-1.54.47-3.46.71-5.77.71-.52,0-.97-.02-1.37-.06-.56-.06-.96-.26-1.19-.58-.19-.27-.29-.68-.29-1.23v-9.02h7.32v1.66h-4.77v2.69h3.95v1.64h-3.95v2.59c0,.33.14.51.43.54.33.04.74.06,1.23.06,1.55,0,2.92-.15,4.12-.44l.29,1.45ZM124.32,68.66h-2.53v-8.55h-2.59v-1.66h2.59v-4.57h2.53v14.78Z"/>
    </g>
  </g>
</svg>