<?xml version="1.0" encoding="UTF-8"?>
<svg id="_레이어_2" data-name="레이어 2" xmlns="http://www.w3.org/2000/svg" viewBox="0 0 124 154.16">
  <defs>
    <style>
      .cls-1 {
        fill: none;
      }
    </style>
  </defs>
  <g id="_레이어_1-2" data-name="레이어 1">
    <g>
      <g>
        <path d="M57,120.13c0-.48-.35-.89-.83-.98-20.99-3.84-37.17-28.09-37.17-57.46S35.18,8.07,56.17,4.23c.48-.09.83-.49.83-.98V1.01c0-.59-.51-1.06-1.1-1C24.53,3.04,0,29.27,0,61.19s24.53,58.15,55.9,61.19c.59.06,1.1-.41,1.1-1v-1.25Z"/>
        <path d="M68,1.1v2.36c0,.47.33.87.79.97,20.52,4.39,36.21,28.35,36.21,57.27s-15.69,52.87-36.21,57.27c-.46.1-.79.5-.79.97v1.36c0,.6.52,1.07,1.11,1,30.89-3.5,54.89-29.51,54.89-61.09S100,3.6,69.11.1c-.59-.07-1.11.41-1.11,1Z"/>
      </g>
      <g>
        <path class="cls-1" d="M10.14,143.32c-1.41,0-2.44.45-3.08,1.34s-.96,2.07-.96,3.51.31,2.57.93,3.51,1.66,1.4,3.11,1.4c1.37,0,2.38-.44,3.03-1.33s.98-2.08.98-3.58c0-1.4-.31-2.56-.94-3.48s-1.65-1.38-3.07-1.38Z"/>
        <path class="cls-1" d="M86.62,143.57h-2.7v9.28h2.72c1.7.01,2.88-.43,3.55-1.31s.99-1.99.99-3.3-.35-2.45-1.04-3.34-1.86-1.33-3.52-1.33Z"/>
        <path d="M10.14,142.25c-1.75,0-3.07.56-3.98,1.68s-1.36,2.53-1.36,4.25c0,1.82.46,3.28,1.38,4.36s2.24,1.62,3.95,1.62,3-.55,3.92-1.66,1.38-2.55,1.38-4.32-.45-3.13-1.36-4.25c-.91-1.12-2.22-1.68-3.94-1.68ZM13.18,151.76c-.65.89-1.66,1.33-3.03,1.33-1.46,0-2.5-.47-3.11-1.4s-.93-2.1-.93-3.51.32-2.62.96-3.51,1.67-1.34,3.08-1.34,2.44.46,3.07,1.38.94,2.08.94,3.48c0,1.5-.33,2.69-.98,3.58Z"/>
        <path d="M25.55,149.83c0,.91-.25,1.68-.74,2.31s-1.42.95-2.79.95-2.27-.32-2.78-.95-.75-1.4-.75-2.31v-7.34h-1.29v6.95c0,1.51.36,2.67,1.09,3.49s1.97,1.22,3.73,1.22,2.94-.39,3.69-1.17,1.13-1.97,1.13-3.56v-6.93h-1.29v7.34Z"/>
        <polygon points="28.14 143.57 32.54 143.57 32.54 153.91 33.84 153.91 33.84 143.57 38.23 143.57 38.23 142.5 28.14 142.5 28.14 143.57"/>
        <path d="M45.47,148.88c-.56-.54-1.63-1.07-3.22-1.6-.47-.17-.89-.43-1.27-.77s-.57-.79-.57-1.34c0-.6.19-1.06.57-1.38s.97-.47,1.77-.47c.71,0,1.27.2,1.67.59s.62.81.66,1.24h1.01c-.08-.86-.42-1.56-1-2.1s-1.36-.8-2.31-.8c-1.18,0-2.04.28-2.59.84s-.83,1.31-.83,2.23.27,1.55.8,1.99,1.34.85,2.42,1.23c.83.28,1.48.6,1.96.97s.72.86.72,1.49c0,.72-.2,1.25-.61,1.58s-1.01.49-1.82.49c-.91,0-1.57-.18-1.99-.54s-.68-.87-.77-1.51h-1.04c.06.82.39,1.55.99,2.18s1.51.95,2.73.95c1.15,0,2.03-.26,2.64-.79s.92-1.38.92-2.57c0-.74-.28-1.39-.83-1.93Z"/>
        <polygon points="47.1 143.57 51.51 143.57 51.51 153.91 52.8 153.91 52.8 143.57 57.19 143.57 57.19 142.5 47.1 142.5 47.1 143.57"/>
        <polygon points="62.03 142.51 57.46 153.93 58.78 153.93 59.98 150.92 60.4 149.85 62.78 143.82 65.15 149.85 65.58 150.92 66.77 153.93 68.11 153.93 63.5 142.51 62.03 142.51"/>
        <polygon points="77.7 152.39 70.94 142.5 69.37 142.5 69.37 153.91 70.66 153.91 70.66 144 77.36 153.91 79 153.91 79 142.5 77.7 142.5 77.7 152.39"/>
        <path d="M86.09,142.5h-4.84v11.42h4.92c1.4.01,2.57-.48,3.51-1.46s1.41-2.39,1.41-4.23-.49-3.33-1.46-4.29c-.97-.96-2.15-1.44-3.55-1.44ZM88.8,151.53c-.66.89-1.84,1.32-3.55,1.31h-2.72v-9.28h2.7c1.66,0,2.83.44,3.52,1.33s1.04,2,1.04,3.34-.33,2.42-.99,3.3Z"/>
        <rect x="93.34" y="142.5" width="1.29" height="11.42"/>
        <polygon points="105.72 152.39 98.96 142.5 97.39 142.5 97.39 153.91 98.68 153.91 98.68 144 105.37 153.91 107.01 153.91 107.01 142.5 105.72 142.5 105.72 152.39"/>
        <path d="M115.45,148.2v1.07h2.45v2.64c-.33.4-.81.7-1.43.89s-1.34.29-2.16.29c-1.19,0-2.2-.38-3.02-1.14s-1.23-2.02-1.23-3.78c0-1.32.35-2.45,1.04-3.41s1.76-1.43,3.21-1.43c.94,0,1.74.16,2.39.49s1.04.72,1.15,1.16h1.29c-.1-.69-.53-1.32-1.28-1.88s-1.92-.84-3.49-.84c-1.81,0-3.2.56-4.16,1.68s-1.44,2.53-1.44,4.25c0,1.99.49,3.48,1.46,4.49s2.33,1.5,4.06,1.49c1.18.01,2.19-.15,3.02-.49s1.46-.74,1.89-1.21v-4.26h-3.74Z"/>
      </g>
    </g>
  </g>
</svg>